<svg width="140" height="140" viewBox="0 0 140 140" fill="none" xmlns="http://www.w3.org/2000/svg">
<g clip-path="url(#clip0_1143_602)">
<path d="M137.667 74.6667C138.956 74.6667 140 73.6219 140 72.3333V58.3333C140 57.0447 138.956 56 137.667 56H134.454C129.942 47.2389 129.942 36.7611 134.454 28H137.667C138.564 28 139.38 27.4861 139.77 26.6773C140.157 25.8694 140.05 24.9089 139.49 24.2095C134.679 18.1985 134.679 9.80175 139.49 3.7905C140.05 3.09108 140.157 2.13062 139.77 1.32271C139.38 0.513917 138.564 0 137.667 0H21C15.8527 0 11.6667 4.18687 11.6667 9.33333V18.6667C11.6667 21.3628 12.8333 23.7761 14.6673 25.4815C8.72958 28.6093 4.66667 34.8355 4.66667 42C4.66667 47.577 7.13796 52.5764 11.0279 56H9.33333C4.186 56 0 60.1869 0 65.3333C0 68.1342 1.26525 70.6212 3.22525 72.3333C1.26525 74.0454 0 76.5325 0 79.3333V88.6667C0 93.8131 4.186 98 9.33333 98H9.39313C3.70475 102.259 0 109.03 0 116.667C0 129.533 10.4682 140 23.3333 140H137.667C138.528 140 139.319 139.526 139.724 138.767C140.13 138.008 140.084 137.088 139.608 136.372C131.626 124.401 131.626 108.932 139.608 96.9608C140.085 96.2453 140.13 95.3248 139.724 94.5659C139.319 93.807 138.528 93.3333 137.667 93.3333H129.569C125.612 87.689 125.612 80.311 129.569 74.6667H137.667ZM16.3333 9.33333C16.3333 6.75967 18.4275 4.66667 21 4.66667H133.415C130.471 10.5537 130.471 17.4463 133.415 23.3333H21C18.4275 23.3333 16.3333 21.2403 16.3333 18.6667V9.33333ZM9.33333 42C9.33333 34.2799 15.6132 28 23.3333 28H129.249C125.404 36.9075 125.404 47.0925 129.249 56H23.3333C15.6132 56 9.33333 49.7201 9.33333 42ZM9.33333 93.3333C6.76083 93.3333 4.66667 91.2403 4.66667 88.6667V79.3333C4.66667 76.7597 6.76083 74.6667 9.33333 74.6667H124.103C121.155 80.5563 121.155 87.4437 124.103 93.3333H25.6667H23.3333H9.33333ZM133.57 98C127.415 109.701 127.415 123.633 133.57 135.333H23.3333C13.0407 135.333 4.66667 126.959 4.66667 116.667C4.66667 106.374 13.0407 98 23.3333 98H25.6667H133.57ZM9.33333 70C6.76083 70 4.66667 67.907 4.66667 65.3333C4.66667 62.7597 6.76083 60.6667 9.33333 60.6667H135.333V70H9.33333Z" fill="white"/>
<path d="M126 107.334V102.667H23.3335C15.6134 102.667 9.3335 108.947 9.3335 116.667C9.3335 124.387 15.6134 130.667 23.3335 130.667H126V126H23.3335V107.334H126ZM18.6668 124.702C15.8905 123.083 14.0002 120.106 14.0002 116.667C14.0002 113.228 15.8905 110.251 18.6668 108.632V124.702Z" fill="white"/>
<path d="M123.667 34.9997V30.333H23.3332C16.9005 30.333 11.6665 35.567 11.6665 41.9997C11.6665 48.4324 16.9005 53.6663 23.3332 53.6663H123.667V48.9997H25.6665V34.9997H123.667ZM20.9998 48.5695C18.2897 47.6032 16.3332 45.0374 16.3332 41.9997C16.3332 38.962 18.2897 36.3959 20.9998 35.4296V48.5695Z" fill="white"/>
<path d="M119 81.6667V77H11.6668C10.3771 77 9.3335 78.0447 9.3335 79.3333V88.6667C9.3335 89.9552 10.3771 91 11.6668 91H119V86.3333H14.0002V81.6667H119Z" fill="white"/>
<g opacity="0.4" clip-path="url(#clip1_1143_602)">
<path d="M137.667 116.667C138.956 116.667 140 115.622 140 114.333V100.333C140 99.0447 138.956 98 137.667 98H134.454C129.942 89.2389 129.942 78.7611 134.454 70H137.667C138.564 70 139.38 69.4861 139.77 68.6773C140.157 67.8694 140.05 66.9089 139.49 66.2095C134.679 60.1985 134.679 51.8018 139.49 45.7905C140.05 45.0911 140.157 44.1306 139.77 43.3227C139.38 42.5139 138.564 42 137.667 42H21C15.8527 42 11.6667 46.1869 11.6667 51.3333V60.6667C11.6667 63.3628 12.8333 65.7761 14.6673 67.4815C8.72958 70.6093 4.66667 76.8355 4.66667 84C4.66667 89.577 7.13796 94.5764 11.0279 98H9.33333C4.186 98 0 102.187 0 107.333C0 110.134 1.26525 112.621 3.22525 114.333C1.26525 116.045 0 118.532 0 121.333V130.667C0 135.813 4.186 140 9.33333 140H9.39313C3.70475 144.259 0 151.03 0 158.667C0 171.533 10.4682 182 23.3333 182H137.667C138.528 182 139.319 181.526 139.724 180.767C140.13 180.008 140.084 179.088 139.608 178.372C131.626 166.401 131.626 150.932 139.608 138.961C140.085 138.245 140.13 137.325 139.724 136.566C139.319 135.807 138.528 135.333 137.667 135.333H129.569C125.612 129.689 125.612 122.311 129.569 116.667H137.667ZM16.3333 51.3333C16.3333 48.7597 18.4275 46.6667 21 46.6667H133.415C130.471 52.5537 130.471 59.4463 133.415 65.3333H21C18.4275 65.3333 16.3333 63.2403 16.3333 60.6667V51.3333ZM9.33333 84C9.33333 76.2799 15.6132 70 23.3333 70H129.249C125.404 78.9075 125.404 89.0925 129.249 98H23.3333C15.6132 98 9.33333 91.7201 9.33333 84ZM9.33333 135.333C6.76083 135.333 4.66667 133.24 4.66667 130.667V121.333C4.66667 118.76 6.76083 116.667 9.33333 116.667H124.103C121.155 122.556 121.155 129.444 124.103 135.333H25.6667H23.3333H9.33333ZM133.57 140C127.415 151.701 127.415 165.633 133.57 177.333H23.3333C13.0407 177.333 4.66667 168.959 4.66667 158.667C4.66667 148.374 13.0407 140 23.3333 140H25.6667H133.57ZM9.33333 112C6.76083 112 4.66667 109.907 4.66667 107.333C4.66667 104.76 6.76083 102.667 9.33333 102.667H135.333V112H9.33333Z" fill="white"/>
<path d="M123.667 76.9997V72.333H23.3332C16.9005 72.333 11.6665 77.567 11.6665 83.9997C11.6665 90.4324 16.9005 95.6663 23.3332 95.6663H123.667V90.9997H25.6665V76.9997H123.667ZM20.9998 90.5695C18.2897 89.6032 16.3332 87.0374 16.3332 83.9997C16.3332 80.962 18.2897 78.3959 20.9998 77.4296V90.5695Z" fill="white"/>
<path d="M119 123.667V119H11.6668C10.3771 119 9.3335 120.045 9.3335 121.333V130.667C9.3335 131.955 10.3771 133 11.6668 133H119V128.333H14.0002V123.667H119Z" fill="white"/>
<path d="M128.333 53.6667V49H20.9998C19.7101 49 18.6665 50.0447 18.6665 51.3333V60.6667C18.6665 61.9552 19.7101 63 20.9998 63H128.333V58.3333H23.3332V53.6667H128.333Z" fill="white"/>
</g>
<path d="M128.333 11.6667V7H20.9998C19.7101 7 18.6665 8.04475 18.6665 9.33333V18.6667C18.6665 19.9552 19.7101 21 20.9998 21H128.333V16.3333H23.3332V11.6667H128.333Z" fill="white"/>
</g>
<defs>
<clipPath id="clip0_1143_602">
<rect width="140" height="140" fill="white"/>
</clipPath>
<clipPath id="clip1_1143_602">
<rect width="140" height="140" fill="white" transform="translate(0 42)"/>
</clipPath>
</defs>
</svg>
