<svg width="140" height="140" viewBox="0 0 140 140" fill="none" xmlns="http://www.w3.org/2000/svg">
<g clip-path="url(#clip0_1143_337)">
<path d="M88.7988 0H33.0859V24.6094H98.7109C116.955 24.6094 131.797 39.4516 131.797 57.6953C131.797 72.7409 121.172 85.8421 106.823 89.4945C106.882 88.4721 106.914 87.4431 106.914 86.4062C106.914 56.8545 82.9946 32.8125 53.5938 32.8125C24.1177 32.8125 0 56.9332 0 86.4062C0 115.883 24.121 140 53.5938 140C72.9449 140 89.9202 129.584 99.2649 114.038C122.866 109.102 140 88.2399 140 64.1895C140 60.0627 140 55.3279 140 51.2012C140 23.047 116.949 0 88.7988 0ZM82.3047 16.4062H65.8984V8.20312H82.3047V16.4062ZM41.2891 8.20312H57.6953V16.4062H41.2891V8.20312ZM98.7109 16.4062H90.5078V8.24086C102.916 8.72867 113.991 14.4955 121.538 23.3565C114.808 18.8346 106.93 16.4062 98.7109 16.4062ZM53.5938 131.797C28.5652 131.797 8.20312 111.435 8.20312 86.4062C8.20312 61.3777 28.5652 41.0156 53.5938 41.0156C78.4714 41.0156 98.7109 61.3777 98.7109 86.4062C98.7109 111.435 78.4714 131.797 53.5938 131.797ZM103.903 104.16C104.59 102.198 105.168 100.184 105.626 98.1252C111.216 97.1775 116.525 95.0953 121.247 92.0205C116.606 97.3632 110.666 101.595 103.903 104.16Z" fill="white"/>
<path d="M53.5938 74.1016C60.3786 74.1016 65.8984 68.5817 65.8984 61.7969C65.8984 55.0121 60.3786 49.4922 53.5938 49.4922C46.8089 49.4922 41.2891 55.0121 41.2891 61.7969C41.2891 68.5817 46.8089 74.1016 53.5938 74.1016ZM53.5938 57.6953C55.8554 57.6953 57.6953 59.5353 57.6953 61.7969C57.6953 64.0585 55.8554 65.8984 53.5938 65.8984C51.3321 65.8984 49.4922 64.0585 49.4922 61.7969C49.4922 59.5353 51.3321 57.6953 53.5938 57.6953Z" fill="white"/>
<path d="M53.5938 98.7109C46.8089 98.7109 41.2891 104.231 41.2891 111.016C41.2891 117.8 46.8089 123.32 53.5938 123.32C60.3786 123.32 65.8984 117.8 65.8984 111.016C65.8984 104.231 60.3786 98.7109 53.5938 98.7109ZM53.5938 115.117C51.3321 115.117 49.4922 113.277 49.4922 111.016C49.4922 108.754 51.3321 106.914 53.5938 106.914C55.8554 106.914 57.6953 108.754 57.6953 111.016C57.6953 113.277 55.8554 115.117 53.5938 115.117Z" fill="white"/>
<path d="M28.9844 74.1016C22.1996 74.1016 16.6797 79.6214 16.6797 86.4062C16.6797 93.1911 22.1996 98.7109 28.9844 98.7109C35.7692 98.7109 41.2891 93.1911 41.2891 86.4062C41.2891 79.6214 35.7692 74.1016 28.9844 74.1016ZM28.9844 90.5078C26.7228 90.5078 24.8828 88.6679 24.8828 86.4062C24.8828 84.1446 26.7228 82.3047 28.9844 82.3047C31.246 82.3047 33.0859 84.1446 33.0859 86.4062C33.0859 88.6679 31.246 90.5078 28.9844 90.5078Z" fill="white"/>
<path d="M78.2031 74.1016C71.4183 74.1016 65.8984 79.6214 65.8984 86.4062C65.8984 93.1911 71.4183 98.7109 78.2031 98.7109C84.9879 98.7109 90.5078 93.1911 90.5078 86.4062C90.5078 79.6214 84.9879 74.1016 78.2031 74.1016ZM78.2031 90.5078C75.9415 90.5078 74.1016 88.6679 74.1016 86.4062C74.1016 84.1446 75.9415 82.3047 78.2031 82.3047C80.4647 82.3047 82.3047 84.1446 82.3047 86.4062C82.3047 88.6679 80.4647 90.5078 78.2031 90.5078Z" fill="white"/>
<path d="M49.4922 82.3047H57.6953V90.5078H49.4922V82.3047Z" fill="white"/>
</g>
<defs>
<clipPath id="clip0_1143_337">
<rect width="140" height="140" fill="white"/>
</clipPath>
</defs>
</svg>
