<svg width="144" height="30" viewBox="0 0 144 30" fill="none" xmlns="http://www.w3.org/2000/svg">
<path d="M130.893 0H93.8835C86.6802 0 80.8408 6.28713 80.8408 14.0427V14.9788C80.8408 22.7344 86.6802 29.0215 93.8835 29.0215H130.893C138.097 29.0215 143.936 22.7344 143.936 14.9788V14.0427C143.936 6.28713 138.097 0 130.893 0Z" fill="#220E75"/>
<path d="M5.53109 7.18398C6.41547 7.18398 7.18743 7.37845 7.84696 7.76738C8.52148 8.1562 9.03862 8.66665 9.39836 9.29849V7.37845H13.2432V20.9161C13.2432 22.1637 13.0108 23.2898 12.5462 24.2944C12.0965 25.3152 11.3995 26.1253 10.4551 26.7249C9.52577 27.3243 8.3641 27.6241 6.97008 27.6241C5.11139 27.6241 3.60495 27.1461 2.45077 26.1902C1.29659 25.2504 0.637054 23.9703 0.472166 22.3501H4.27198C4.3919 22.8685 4.6767 23.2736 5.12638 23.5652C5.57606 23.8731 6.13067 24.027 6.7902 24.027C7.58465 24.027 8.2142 23.7759 8.67887 23.2736C9.15853 22.7875 9.39836 22.0017 9.39836 20.9161V18.996C9.02363 19.6279 8.50649 20.1465 7.84696 20.5515C7.18743 20.9404 6.41547 21.1348 5.53109 21.1348C4.49683 21.1348 3.55999 20.8513 2.72058 20.2841C1.88117 19.7008 1.21415 18.8825 0.719493 17.8294C0.23983 16.76 0 15.5285 0 14.1351C0 12.7416 0.23983 11.5184 0.719493 10.4652C1.21415 9.41198 1.88117 8.60182 2.72058 8.03469C3.55999 7.46755 4.49683 7.18398 5.53109 7.18398ZM9.39836 14.1595C9.39836 13.1224 9.12856 12.3041 8.58894 11.7047C8.0643 11.1051 7.41976 10.8054 6.6553 10.8054C5.89084 10.8054 5.2388 11.1051 4.69918 11.7047C4.17455 12.288 3.91223 13.0981 3.91223 14.1351C3.91223 15.1721 4.17455 15.9984 4.69918 16.6141C5.2388 17.2137 5.89084 17.5134 6.6553 17.5134C7.41976 17.5134 8.0643 17.2137 8.58894 16.6141C9.12856 16.0147 9.39836 15.1964 9.39836 14.1595ZM30.0998 13.9407C30.0998 14.3295 30.0772 14.7346 30.0323 15.1558H21.3309C21.3909 15.9984 21.6382 16.6465 22.0729 17.1003C22.5226 17.5378 23.0698 17.7565 23.7142 17.7565C24.6736 17.7565 25.3406 17.319 25.7153 16.444H29.8075C29.5976 17.3352 29.2153 18.1372 28.6608 18.8501C28.1212 19.5631 27.4391 20.1221 26.6147 20.5272C25.7903 20.9322 24.8685 21.1348 23.8491 21.1348C22.62 21.1348 21.5258 20.8513 20.5665 20.2841C19.6071 19.717 18.8576 18.9069 18.318 17.8538C17.7784 16.8004 17.5086 15.5691 17.5086 14.1595C17.5086 12.7498 17.7709 11.5184 18.2956 10.4652C18.8352 9.41198 19.5847 8.60182 20.544 8.03469C21.5033 7.46755 22.6051 7.18398 23.8491 7.18398C25.0633 7.18398 26.1425 7.45953 27.0869 8.01041C28.0312 8.56128 28.7657 9.34716 29.2903 10.3679C29.8299 11.3887 30.0998 12.5797 30.0998 13.9407ZM26.1651 12.847C26.1651 12.1341 25.9402 11.5669 25.4905 11.1457C25.0408 10.7243 24.4787 10.5137 23.8042 10.5137C23.1596 10.5137 22.6125 10.7163 22.1628 11.1214C21.7281 11.5264 21.4584 12.1016 21.3534 12.847H26.1651ZM33.612 14.1351C33.612 12.7416 33.8519 11.5184 34.3315 10.4652C34.8262 9.41198 35.4932 8.60182 36.3326 8.03469C37.172 7.46755 38.1088 7.18398 39.1431 7.18398C39.9676 7.18398 40.717 7.37032 41.3915 7.74299C42.081 8.11566 42.6206 8.61797 43.0104 9.24993V2.95508H46.8552V20.9404H43.0104V18.996C42.6506 19.6441 42.1335 20.1626 41.459 20.5515C40.7995 20.9404 40.0275 21.1348 39.1431 21.1348C38.1088 21.1348 37.172 20.8513 36.3326 20.2841C35.4932 19.7008 34.8262 18.8825 34.3315 17.8294C33.8519 16.76 33.612 15.5285 33.612 14.1351ZM43.0104 14.1595C43.0104 13.1224 42.7406 12.3041 42.201 11.7047C41.6763 11.1051 41.0318 10.8054 40.2673 10.8054C39.5029 10.8054 38.8509 11.1051 38.3111 11.7047C37.7866 12.288 37.5243 13.0981 37.5243 14.1351C37.5243 15.1721 37.7866 15.9984 38.3111 16.6141C38.8509 17.2137 39.5029 17.5134 40.2673 17.5134C41.0318 17.5134 41.6763 17.2137 42.201 16.6141C42.7406 16.0147 43.0104 15.1964 43.0104 14.1595ZM64.2738 7.37845V20.9404H60.4291V19.0933C60.0394 19.6927 59.5072 20.1789 58.8327 20.5515C58.1732 20.908 57.4387 21.0862 56.6292 21.0862C55.6699 21.0862 54.823 20.8594 54.0885 20.4056C53.3541 19.9357 52.7844 19.2633 52.3798 18.3884C51.9751 17.5134 51.7727 16.4846 51.7727 15.3018V7.37845H55.5949V14.7427C55.5949 15.6501 55.8123 16.3549 56.247 16.8573C56.6818 17.3595 57.2663 17.6106 58.0008 17.6106C58.7503 17.6106 59.3423 17.3595 59.7771 16.8573C60.2118 16.3549 60.4291 15.6501 60.4291 14.7427V7.37845H64.2738ZM68.5194 14.1595C68.5194 12.7498 68.7818 11.5184 69.3064 10.4652C69.846 9.41198 70.588 8.60182 71.5323 8.03469C72.4917 7.46755 73.5859 7.18398 74.815 7.18398C76.3889 7.18398 77.7006 7.6296 78.7498 8.52074C79.814 9.41198 80.5111 10.6677 80.8408 12.288H76.7487C76.404 11.2509 75.7369 10.7325 74.7475 10.7325C74.0431 10.7325 73.481 11.0322 73.0613 11.6317C72.6416 12.215 72.4317 13.0576 72.4317 14.1595C72.4317 15.2612 72.6416 16.1119 73.0613 16.7113C73.481 17.2947 74.0431 17.5863 74.7475 17.5863C75.7369 17.5863 76.404 17.0679 76.7487 16.0308H80.8408C80.5111 17.6187 79.814 18.8664 78.7498 19.7738C77.6855 20.6811 76.374 21.1348 74.815 21.1348C73.5859 21.1348 72.4917 20.8513 71.5323 20.2841C70.588 19.717 69.846 18.9069 69.3064 17.8538C68.7818 16.8004 68.5194 15.5691 68.5194 14.1595Z" fill="#220E75"/>
<path d="M84.7842 14.4765C84.7842 13.263 84.9936 12.1976 85.4124 11.2804C85.8444 10.3632 86.4269 9.65768 87.1599 9.16377C87.8929 8.66986 88.711 8.42291 89.6142 8.42291C90.3865 8.42291 91.0606 8.59226 91.6366 8.93098C92.2256 9.2696 92.6772 9.71414 92.9913 10.2644V8.59227H96.3488V20.4031H92.9913V18.731C92.6641 19.2813 92.2059 19.7258 91.6169 20.0645C91.041 20.4031 90.3669 20.5725 89.5946 20.5725C88.7045 20.5725 87.8929 20.3255 87.1599 19.8316C86.4269 19.3236 85.8444 18.611 85.4124 17.6938C84.9936 16.7625 84.7842 15.69 84.7842 14.4765ZM92.9913 14.4977C92.9913 13.5946 92.7557 12.882 92.2845 12.3599C91.8264 11.8378 91.2635 11.5768 90.596 11.5768C89.9283 11.5768 89.359 11.8378 88.8878 12.3599C88.4296 12.8679 88.2005 13.5735 88.2005 14.4765C88.2005 15.3796 88.4296 16.0993 88.8878 16.6355C89.359 17.1576 89.9283 17.4186 90.596 17.4186C91.2635 17.4186 91.8264 17.1576 92.2845 16.6355C92.7557 16.1134 92.9913 15.4008 92.9913 14.4977ZM105.512 17.4821C106.376 17.4821 106.959 17.0306 107.26 16.1275H110.834C110.585 17.327 110.087 18.3077 109.341 19.0696C108.595 19.8316 107.666 20.3044 106.553 20.4878V21.271C107.234 21.271 107.83 21.4685 108.339 21.8636C108.85 22.2728 109.106 22.8795 109.106 23.6839C109.106 24.4882 108.837 25.095 108.301 25.5042C107.764 25.9276 107.123 26.1392 106.376 26.1392H103.353V24.1495H105.925C106.186 24.1495 106.383 24.1072 106.514 24.0226C106.644 23.9379 106.71 23.7968 106.71 23.5993C106.71 23.4017 106.644 23.2606 106.514 23.1759C106.383 23.1054 106.186 23.0701 105.925 23.0701H104.53V20.4878C103.182 20.262 102.103 19.62 101.291 18.5616C100.48 17.4892 100.074 16.1346 100.074 14.4977C100.074 13.27 100.303 12.1976 100.761 11.2804C101.232 10.3632 101.88 9.65768 102.705 9.16377C103.542 8.66986 104.498 8.42291 105.571 8.42291C106.946 8.42291 108.091 8.81099 109.007 9.58707C109.936 10.3632 110.545 11.4568 110.834 12.8679H107.26C106.959 11.9648 106.376 11.5132 105.512 11.5132C104.898 11.5132 104.406 11.7743 104.04 12.2964C103.674 12.8044 103.49 13.5381 103.49 14.4977C103.49 15.4572 103.674 16.1981 104.04 16.7201C104.406 17.2282 104.898 17.4821 105.512 17.4821ZM113.925 14.4765C113.925 13.263 114.135 12.1976 114.553 11.2804C114.985 10.3632 115.568 9.65768 116.301 9.16377C117.034 8.66986 117.852 8.42291 118.755 8.42291C119.528 8.42291 120.202 8.59226 120.778 8.93098C121.366 9.2696 121.818 9.71414 122.132 10.2644V8.59227H125.49V20.4031H122.132V18.731C121.805 19.2813 121.347 19.7258 120.758 20.0645C120.182 20.4031 119.508 20.5725 118.736 20.5725C117.846 20.5725 117.034 20.3255 116.301 19.8316C115.568 19.3236 114.985 18.611 114.553 17.6938C114.135 16.7625 113.925 15.69 113.925 14.4765ZM122.132 14.4977C122.132 13.5946 121.897 12.882 121.426 12.3599C120.968 11.8378 120.404 11.5768 119.737 11.5768C119.069 11.5768 118.5 11.8378 118.029 12.3599C117.57 12.8679 117.342 13.5735 117.342 14.4765C117.342 15.3796 117.57 16.0993 118.029 16.6355C118.5 17.1576 119.069 17.4186 119.737 17.4186C120.404 17.4186 120.968 17.1576 121.426 16.6355C121.897 16.1134 122.132 15.4008 122.132 14.4977ZM116.183 7.59746C116.497 5.50902 117.401 4.46484 118.892 4.46484C119.181 4.46484 119.429 4.51422 119.639 4.61306C119.861 4.69764 120.129 4.83169 120.444 5.01521C120.68 5.15624 120.87 5.26206 121.013 5.33268C121.157 5.38913 121.308 5.41736 121.464 5.41736C121.949 5.41736 122.231 5.09979 122.309 4.46484H124.037C123.723 6.55329 122.82 7.59746 121.328 7.59746C121.04 7.59746 120.784 7.55517 120.561 7.47049C120.352 7.37165 120.091 7.23062 119.776 7.0471C119.541 6.90607 119.351 6.80723 119.207 6.75077C119.063 6.68026 118.913 6.64495 118.755 6.64495C118.271 6.64495 117.983 6.96252 117.891 7.59746H116.183ZM134.87 20.5725C133.797 20.5725 132.828 20.3255 131.964 19.8316C131.113 19.3377 130.439 18.6322 129.941 17.715C129.457 16.7977 129.215 15.7253 129.215 14.4977C129.215 13.2842 129.464 12.2188 129.961 11.3016C130.458 10.3702 131.139 9.65768 132.003 9.16377C132.867 8.66986 133.835 8.42291 134.909 8.42291C135.982 8.42291 136.951 8.66986 137.815 9.16377C138.679 9.65768 139.359 10.3702 139.857 11.3016C140.354 12.2188 140.602 13.2842 140.602 14.4977C140.602 15.7113 140.347 16.7837 139.837 17.715C139.34 18.6322 138.652 19.3377 137.775 19.8316C136.912 20.3255 135.943 20.5725 134.87 20.5725ZM134.87 17.4399C135.511 17.4399 136.054 17.1858 136.499 16.6778C136.957 16.1699 137.187 15.4432 137.187 14.4977C137.187 13.5523 136.964 12.8255 136.519 12.3175C136.086 11.8096 135.55 11.5556 134.909 11.5556C134.255 11.5556 133.711 11.8096 133.279 12.3175C132.847 12.8114 132.631 13.5381 132.631 14.4977C132.631 15.4432 132.841 16.1699 133.259 16.6778C133.691 17.1858 134.228 17.4399 134.87 17.4399Z" fill="white"/>
</svg>
