<svg width="155" height="155" viewBox="0 0 155 155" fill="none" xmlns="http://www.w3.org/2000/svg">
<g clip-path="url(#clip0_1143_558)">
<path d="M127.84 59.1969C126.658 58.0151 124.741 58.0151 123.559 59.1969C122.376 60.3794 122.376 62.2963 123.559 63.4785C123.605 63.5251 123.654 63.5726 123.7 63.6162C124.285 64.1633 125.028 64.4339 125.77 64.4339C126.577 64.4339 127.384 64.1121 127.98 63.4761C129.123 62.2564 129.06 60.3401 127.84 59.1969Z" fill="#F7F4FF"/>
<path d="M121.689 54.2253C119.956 53.0485 118.177 51.999 116.402 51.105C106.355 46.0496 95.7088 45.0349 85.6132 48.17C84.0166 48.6662 83.1239 50.3624 83.62 51.959C84.1159 53.5559 85.8115 54.4478 87.409 53.9522C95.9776 51.2909 105.062 52.1767 113.679 56.513C115.199 57.2786 116.793 58.2201 118.289 59.2346C118.81 59.5882 119.401 59.758 119.986 59.758C120.956 59.758 121.908 59.2933 122.494 58.4305C123.433 57.0473 123.073 55.1643 121.689 54.2253Z" fill="#F7F4FF"/>
<path d="M149.231 93.4021C147.99 90.7986 145.935 86.487 145.898 85.0609C149.438 76.3349 148.146 66.6786 142.25 57.8458C133.182 44.2612 114.597 34.4012 98.0599 34.4012C89.3181 34.4012 80.782 36.4858 73.1022 40.4652C70.8989 28.3931 60.3117 19.2109 47.6133 19.2109C33.3225 19.2109 21.6963 30.8371 21.6963 45.1276C21.6963 54.2196 26.3299 62.4864 34.0902 67.2408C36.3274 68.6115 36.8336 69.7965 37.0134 71.7379V82.0741V89.4526C37.0134 92.8329 39.7628 95.583 43.1422 95.583H44.1715C45.8344 108.835 52.2481 120.868 62.4291 129.722C62.525 130.021 62.805 131.423 61.602 135.606C60.665 138.864 59.227 142.484 57.9589 145.678C57.11 147.815 56.3768 149.661 55.9336 151.056C55.6415 151.976 55.8055 152.981 56.3756 153.76C56.9459 154.539 57.8535 155 58.819 155H102.033C103.452 155 105.403 154.364 106.63 151.336C107.165 150.017 107.513 148.432 107.883 146.752C108.243 145.116 109.086 141.285 109.925 140.822C109.925 140.822 109.974 140.814 110.093 140.832C110.248 140.857 110.405 140.869 110.562 140.869C115.088 140.869 118.786 141.074 122.048 141.255C131.618 141.785 137.394 142.106 142.461 134.808C145.037 131.096 144.745 125.682 144.436 119.95C144.277 116.996 144.113 113.947 144.404 111.412C144.933 110.892 146.256 109.984 147.085 109.414C149.939 107.454 152.634 105.603 152.634 102.79C152.635 100.651 151.342 97.8289 149.231 93.4021ZM37.2538 62.0774C31.3035 58.4324 27.7513 52.0962 27.7513 45.1273C27.7513 34.175 36.6616 25.2653 47.6136 25.2653C58.5659 25.2653 67.4759 34.1753 67.4759 45.1273C67.4759 52.0962 63.9239 58.4328 57.9734 62.078C55.1456 63.8111 53.4648 65.8325 52.6671 68.5637L47.6127 68.5619L42.5607 68.5637C41.7624 65.8328 40.0819 63.8111 37.2538 62.0774ZM52.1591 74.619V79.0465H43.0687V74.619H52.1591ZM43.1428 89.528C43.1092 89.528 43.0687 89.4862 43.0687 89.4523V85.1011H52.1591V89.4523C52.1591 89.4865 52.1183 89.528 52.0841 89.528H43.1428ZM143.658 104.422C141.053 106.212 138.802 107.757 138.471 110.096C138.015 113.303 138.206 116.848 138.391 120.276C138.62 124.528 138.88 129.348 137.487 131.355C134.475 135.694 131.87 135.736 122.384 135.209C119.255 135.035 115.371 134.82 110.767 134.813C108.999 134.605 106.007 134.937 104.01 138.818C102.996 140.789 102.451 143.266 101.97 145.45C101.729 146.548 101.389 148.091 101.071 148.945H63.1771C63.3097 148.61 63.4465 148.266 63.587 147.912C67.9482 136.931 70.7103 128.877 66.506 125.242C57.5947 117.535 51.9118 107.099 50.2822 95.5827H52.0844C55.4644 95.5827 58.2141 92.8326 58.2141 89.4523V82.0738V71.7436C58.3936 69.7986 58.8983 68.6128 61.1373 67.2405C68.3033 62.8502 72.7995 55.4645 73.4467 47.2001C80.877 42.7848 89.3523 40.4555 98.0602 40.4555C112.485 40.4555 129.318 49.3768 137.214 61.207C140.599 66.2772 143.868 74.1649 140.221 82.9472C139.033 85.8071 140.794 89.7735 143.766 96.0074C144.728 98.0254 146.121 100.947 146.489 102.312C145.864 102.908 144.519 103.832 143.658 104.422Z" fill="#F7F4FF"/>
<path d="M62.4632 40.8495C61.5692 37.5361 59.3469 34.8823 56.0359 33.174C54.5501 32.4084 52.7243 32.9908 51.9575 34.4772C51.1912 35.9634 51.7743 37.7892 53.2604 38.5554C55.068 39.4878 56.1664 40.7544 56.6174 42.4264C57.3316 45.0735 56.2514 47.9377 55.7773 48.6815C54.8785 50.0916 55.293 51.9631 56.7028 52.8619C57.2072 53.1837 57.7705 53.3366 58.3273 53.3366C59.3272 53.3366 60.3056 52.8423 60.8826 51.9365C62.1741 49.9115 63.6605 45.2869 62.4632 40.8495Z" fill="#F7F4FF"/>
<path d="M47.6138 0C45.9418 0 44.5864 1.35594 44.5864 3.02733V11.6576C44.5864 13.329 45.9418 14.685 47.6138 14.685C49.2854 14.685 50.6411 13.329 50.6411 11.6576V3.02733C50.6411 1.35594 49.2854 0 47.6138 0Z" fill="#F7F4FF"/>
<path d="M14.0234 42.2207H5.39305C3.72106 42.2207 2.36572 43.5766 2.36572 45.248C2.36572 46.92 3.72106 48.2754 5.39305 48.2754H14.0237C15.6954 48.2754 17.0507 46.92 17.0507 45.248C17.0507 43.5766 15.6951 42.2207 14.0234 42.2207Z" fill="#F7F4FF"/>
<path d="M33.4391 14.641L29.1251 7.17018C28.289 5.7222 26.4372 5.22663 24.9895 6.06217C23.5418 6.89832 23.0456 8.74954 23.8818 10.1975L28.1957 17.6684C28.7567 18.6398 29.7739 19.1826 30.8201 19.1826C31.3339 19.1826 31.8546 19.0518 32.3311 18.7764C33.779 17.9402 34.2752 16.089 33.4391 14.641Z" fill="#F7F4FF"/>
<path d="M20.0343 25.8311L12.5625 21.5171C11.1149 20.6816 9.26304 21.1778 8.42719 22.6251C7.59104 24.0731 8.08722 25.9243 9.53519 26.7605L17.007 31.0744C17.4835 31.3499 18.0042 31.4807 18.5176 31.4807C19.5638 31.4807 20.5813 30.9379 21.1423 29.9664C21.9784 28.519 21.4823 26.6672 20.0343 25.8311Z" fill="#F7F4FF"/>
<path d="M86.801 22.6245C85.9645 21.1766 84.1133 20.6804 82.6656 21.5165L75.1939 25.8305C73.7459 26.6666 73.2497 28.5185 74.0859 29.9658C74.6465 30.9373 75.664 31.4801 76.7103 31.4801C77.2237 31.4801 77.7444 31.3493 78.2212 31.0738L85.693 26.7599C87.1409 25.9237 87.6371 24.0725 86.801 22.6245Z" fill="#F7F4FF"/>
<path d="M21.1438 60.5307C20.3083 59.0827 18.4574 58.5872 17.0091 59.4221L9.53551 63.7361C8.08754 64.5716 7.59105 66.4234 8.4269 67.8714C8.98756 68.8429 10.0054 69.3857 11.0516 69.3857C11.565 69.3857 12.0854 69.2549 12.5622 68.98L20.0355 64.666C21.4835 63.8305 21.98 61.9787 21.1438 60.5307Z" fill="#F7F4FF"/>
<path d="M31.7084 72.7974C30.2611 71.9618 28.4092 72.458 27.5731 73.9054L23.8816 80.3C23.0457 81.748 23.5419 83.5998 24.9899 84.4354C25.4667 84.7109 25.9871 84.8416 26.5005 84.8416C27.5468 84.8416 28.5645 84.2988 29.1252 83.3274L32.8167 76.9327C33.6529 75.4848 33.1567 73.6335 31.7084 72.7974Z" fill="#F7F4FF"/>
<path d="M70.2389 6.06244C68.7906 5.22629 66.9397 5.72247 66.1035 7.17045L61.7896 14.6413C60.9534 16.0893 61.4493 17.9408 62.8973 18.7766C63.3741 19.0521 63.8948 19.1829 64.4082 19.1829C65.4545 19.1829 66.472 18.6401 67.0329 17.6686L71.3469 10.1978C72.183 8.74981 71.6868 6.89859 70.2389 6.06244Z" fill="#F7F4FF"/>
</g>
<defs>
<clipPath id="clip0_1143_558">
<rect width="155" height="155" fill="white"/>
</clipPath>
</defs>
</svg>
