<svg width="513" height="707" viewBox="0 0 513 707" fill="none" xmlns="http://www.w3.org/2000/svg">
<path fill-rule="evenodd" clip-rule="evenodd" d="M460.725 0.000412909C544.46 -0.142591 616.322 36.8874 690.189 68.1144C777.391 104.978 894.808 124.268 928.649 197.813C962.512 271.404 907.121 353.966 851.534 418.752C805.098 472.873 709.726 479.063 649.151 523.564C574.631 578.309 561.056 692.92 460.725 705.856C363.614 718.376 300.82 625.023 221.739 578.669C143.609 532.873 15.048 512.631 1.11654 436.453C-13.267 357.803 115.259 311.974 159.952 240.818C194.76 185.401 177.016 112.903 231.979 68.8969C290.782 21.8153 377.1 0.143229 460.725 0.000412909Z" fill="#220E75"/>
</svg>
